<svg width="45" height="29" viewBox="0 0 45 29" fill="none" xmlns="http://www.w3.org/2000/svg">
<path fill-rule="evenodd" clip-rule="evenodd" d="M23.1 25.5H42.5V27.2H23.1V25.5ZM1.90001 25.5H21.3V27.2H1.90001V25.5ZM33.8 5.29999H42.5V23.7H33.8V5.29999ZM1.90001 5.29999H10.6V23.7H1.90001V5.29999ZM23.1 23.4V15.4H31.9V23.7H23.4C23.1696 23.7 23.1 23.6304 23.1 23.4ZM21 23.7H12.5V15.4H21.3V23.4C21.3 23.6304 21.2304 23.7 21 23.7ZM23.1 5.60001C23.1 5.36958 23.1696 5.29999 23.4 5.29999H31.9V13.6H23.1V5.60001ZM12.5 5.29999H21C21.2304 5.29999 21.3 5.36958 21.3 5.60001V13.6H12.5V5.29999ZM23.1 1.8H42.5V3.49999H23.1V1.8ZM1.90001 1.8H21.3V3.49999H1.90001V1.8ZM0 1.10001V27.9C0 28.3812 0.27428 29 0.700015 29H43.7C44.1257 29 44.4 28.3812 44.4 27.9V1.10001C44.4 0.618802 44.1257 0 43.7 0H0.700015C0.27428 0 0 0.618802 0 1.10001Z" fill="white"/>
</svg>
