<svg width="38" height="40" viewBox="0 0 38 40" fill="none" xmlns="http://www.w3.org/2000/svg">
<path fill-rule="evenodd" clip-rule="evenodd" d="M23.7316 19.9219H23.8976C23.8976 21.0422 24.4629 22.6462 24.8923 23.6728C25.034 24.0116 25.3149 24.4575 25.3912 24.7656C24.6617 24.8228 24.1281 25.0646 23.7078 25.4463C23.2374 25.8735 23.0705 26.2714 22.9018 26.9531C21.2663 25.922 21.2628 25.7279 19.1693 24.8424C18.6998 24.6439 18.2329 24.4194 17.6742 24.2969L18.6814 23.9951C19.8165 23.6379 21.1177 22.8633 21.9681 22.0896L22.3126 21.789C22.7144 21.394 23.6091 20.4172 23.7316 19.9219ZM9.51488 0H10.3553C11.18 0.0272835 11.9998 0.134003 12.7797 0.311412L14.6976 0.849442C15.2569 1.06481 17.5772 2.31825 17.8402 2.65624C17.7814 2.7318 16.945 3.45227 16.8445 3.51562C15.7339 2.96234 15.2678 2.51931 13.6795 1.96425C10.226 0.757293 6.27166 0.965507 3.67073 3.61231L3.17758 4.16363C3.03161 4.32583 2.89831 4.52837 2.77318 4.72037C-0.136188 9.18459 2.0893 15.5413 5.62167 18.8477C6.27309 19.4575 6.7561 19.9168 7.47865 20.4587C11.3808 23.3855 17.2017 24.6187 21.1801 20.8789C23.2456 18.9373 23.9065 15.4305 23.3167 13.0469C23.5665 12.9341 23.82 12.8911 24.1123 12.7803C24.3367 12.6952 24.6168 12.5874 24.8103 12.5C24.8413 12.8504 24.9896 13.2969 25.0366 13.6151C25.3987 16.0666 24.7273 17.0766 24.7273 17.9688C24.7273 20.1579 25.3803 22.5544 26.3858 24.376C27.0359 25.5538 26.9536 24.9486 27.8682 26.0273L35.8241 34.4741C36.0427 34.6859 36.0938 34.7206 36.2963 34.967C36.9028 35.7053 37.8378 36.2428 37.8378 37.5C37.8378 38.2605 37.5838 38.8198 37.0311 39.3185C36.564 39.7399 35.9485 39.9658 35.3358 40H35.0079C34.4567 39.9688 33.9301 39.7799 33.5413 39.4359C33.3498 39.2664 33.1885 39.1091 33.0027 38.9274L27.6316 33.2031C27.4461 32.9744 27.3147 32.8894 27.1136 32.6752C26.9196 32.4684 26.8827 32.3764 26.6571 32.1675L24.1688 29.5103C23.9527 29.3008 23.8961 29.2623 23.6954 29.0185C22.0375 27.004 18.08 25.2179 15.6085 24.7574C14.4417 24.54 13.1951 24.4155 12.0978 24.1566C10.3566 23.7457 8.47 22.9643 7.05273 21.9535L5.87116 21.1128C4.93177 20.3243 5.07645 20.422 4.29512 19.6279C4.09985 19.4295 3.9526 19.333 3.7678 19.1088C2.80721 17.9437 2.53227 17.563 1.71588 16.197C1.56151 15.9387 1.50317 15.7913 1.37552 15.5018C0.376834 13.2365 0 12.0305 0 9.29689C0 8.0059 0.454454 6.46326 0.863371 5.50039C1.75116 3.40992 3.56079 1.80075 5.69668 0.832301C6.84922 0.30973 8.17262 0.0452215 9.51488 0Z" fill="white"/>
<path fill-rule="evenodd" clip-rule="evenodd" d="M16.1807 7.34369C18.5385 7.39315 21.5742 10.1734 21.5742 12.4218C23.8536 12.4218 26.138 10.2653 26.138 8.12495C24.7446 8.12495 23.2774 7.11159 22.5491 6.42587C22.0969 6.00012 21.7056 5.54398 21.407 5.00113C21.1511 4.53589 20.7604 3.72186 20.7444 3.04681C18.2758 3.24023 16.2281 5.3375 16.1807 7.34369Z" fill="white"/>
<path fill-rule="evenodd" clip-rule="evenodd" d="M21.3257 3.04681C21.3633 4.63898 22.9534 6.23169 24.3786 7.04745C24.6001 7.1743 25.9899 7.73507 26.1448 7.5892C26.497 7.25759 25.3212 3.04681 21.3257 3.04681Z" fill="white"/>
<path fill-rule="evenodd" clip-rule="evenodd" d="M20.9934 12.5C20.9934 11.4219 20.3367 10.5737 19.7012 9.81045C18.994 8.96114 17.535 7.99679 16.1807 7.89069C16.1807 9.25891 16.8713 10.3801 17.6111 11.0751C18.4351 11.849 19.5058 12.3835 20.9934 12.5Z" fill="white"/>
</svg>
